<svg width="128" height="110" viewBox="0 0 128 110" fill="none" xmlns="http://www.w3.org/2000/svg">
<circle cx="63" cy="55" r="50" fill="#E8EBF3"/>
<g filter="url(#filter0_f_828_14285)">
<ellipse cx="79.7644" cy="49.3155" rx="22.7273" ry="23.8636" fill="#6A23EA"/>
</g>
<g filter="url(#filter1_f_828_14285)">
<ellipse cx="46.8077" cy="43.6325" rx="21.5909" ry="15.9091" fill="#A904D2"/>
</g>
<g filter="url(#filter2_f_828_14285)">
<ellipse cx="52.489" cy="68.6325" rx="22.7273" ry="15.9091" fill="#00EAFF"/>
</g>
<path d="M50.3684 57.1053C49.2105 57.1053 48.2632 58.0526 48.2632 59.2105C48.2632 60.3684 49.2105 61.3158 50.3684 61.3158C51.5263 61.3158 52.4737 60.3684 52.4737 59.2105C52.4737 58.0526 51.5263 57.1053 50.3684 57.1053ZM50.3684 65.5263C49.2105 65.5263 48.2632 66.4737 48.2632 67.6316C48.2632 68.7895 49.2105 69.7368 50.3684 69.7368C51.5263 69.7368 52.4737 68.7895 52.4737 67.6316C52.4737 66.4737 51.5263 65.5263 50.3684 65.5263ZM50.3684 48.6842C49.2105 48.6842 48.2632 49.6316 48.2632 50.7895C48.2632 51.9474 49.2105 52.8947 50.3684 52.8947C51.5263 52.8947 52.4737 51.9474 52.4737 50.7895C52.4737 49.6316 51.5263 48.6842 50.3684 48.6842ZM44.0526 49.7368C43.4632 49.7368 43 50.2 43 50.7895C43 51.3789 43.4632 51.8421 44.0526 51.8421C44.6421 51.8421 45.1053 51.3789 45.1053 50.7895C45.1053 50.2 44.6421 49.7368 44.0526 49.7368ZM50.3684 40.2632C49.2105 40.2632 48.2632 41.2105 48.2632 42.3684C48.2632 43.5263 49.2105 44.4737 50.3684 44.4737C51.5263 44.4737 52.4737 43.5263 52.4737 42.3684C52.4737 41.2105 51.5263 40.2632 50.3684 40.2632ZM81.9474 51.8421C82.5368 51.8421 83 51.3789 83 50.7895C83 50.2 82.5368 49.7368 81.9474 49.7368C81.3579 49.7368 80.8947 50.2 80.8947 50.7895C80.8947 51.3789 81.3579 51.8421 81.9474 51.8421ZM67.2105 44.4737C68.3684 44.4737 69.3158 43.5263 69.3158 42.3684C69.3158 41.2105 68.3684 40.2632 67.2105 40.2632C66.0526 40.2632 65.1053 41.2105 65.1053 42.3684C65.1053 43.5263 66.0526 44.4737 67.2105 44.4737ZM67.2105 37.1053C67.8 37.1053 68.2632 36.6421 68.2632 36.0526C68.2632 35.4632 67.8 35 67.2105 35C66.6211 35 66.1579 35.4632 66.1579 36.0526C66.1579 36.6421 66.6211 37.1053 67.2105 37.1053ZM44.0526 58.1579C43.4632 58.1579 43 58.6211 43 59.2105C43 59.8 43.4632 60.2632 44.0526 60.2632C44.6421 60.2632 45.1053 59.8 45.1053 59.2105C45.1053 58.6211 44.6421 58.1579 44.0526 58.1579ZM58.7895 72.8947C58.2 72.8947 57.7368 73.3579 57.7368 73.9474C57.7368 74.5368 58.2 75 58.7895 75C59.3789 75 59.8421 74.5368 59.8421 73.9474C59.8421 73.3579 59.3789 72.8947 58.7895 72.8947ZM58.7895 37.1053C59.3789 37.1053 59.8421 36.6421 59.8421 36.0526C59.8421 35.4632 59.3789 35 58.7895 35C58.2 35 57.7368 35.4632 57.7368 36.0526C57.7368 36.6421 58.2 37.1053 58.7895 37.1053ZM58.7895 44.4737C59.9474 44.4737 60.8947 43.5263 60.8947 42.3684C60.8947 41.2105 59.9474 40.2632 58.7895 40.2632C57.6316 40.2632 56.6842 41.2105 56.6842 42.3684C56.6842 43.5263 57.6316 44.4737 58.7895 44.4737ZM58.7895 56.0526C57.0421 56.0526 55.6316 57.4632 55.6316 59.2105C55.6316 60.9579 57.0421 62.3684 58.7895 62.3684C60.5368 62.3684 61.9474 60.9579 61.9474 59.2105C61.9474 57.4632 60.5368 56.0526 58.7895 56.0526ZM75.6316 57.1053C74.4737 57.1053 73.5263 58.0526 73.5263 59.2105C73.5263 60.3684 74.4737 61.3158 75.6316 61.3158C76.7895 61.3158 77.7368 60.3684 77.7368 59.2105C77.7368 58.0526 76.7895 57.1053 75.6316 57.1053ZM75.6316 65.5263C74.4737 65.5263 73.5263 66.4737 73.5263 67.6316C73.5263 68.7895 74.4737 69.7368 75.6316 69.7368C76.7895 69.7368 77.7368 68.7895 77.7368 67.6316C77.7368 66.4737 76.7895 65.5263 75.6316 65.5263ZM75.6316 48.6842C74.4737 48.6842 73.5263 49.6316 73.5263 50.7895C73.5263 51.9474 74.4737 52.8947 75.6316 52.8947C76.7895 52.8947 77.7368 51.9474 77.7368 50.7895C77.7368 49.6316 76.7895 48.6842 75.6316 48.6842ZM75.6316 40.2632C74.4737 40.2632 73.5263 41.2105 73.5263 42.3684C73.5263 43.5263 74.4737 44.4737 75.6316 44.4737C76.7895 44.4737 77.7368 43.5263 77.7368 42.3684C77.7368 41.2105 76.7895 40.2632 75.6316 40.2632ZM81.9474 58.1579C81.3579 58.1579 80.8947 58.6211 80.8947 59.2105C80.8947 59.8 81.3579 60.2632 81.9474 60.2632C82.5368 60.2632 83 59.8 83 59.2105C83 58.6211 82.5368 58.1579 81.9474 58.1579ZM67.2105 65.5263C66.0526 65.5263 65.1053 66.4737 65.1053 67.6316C65.1053 68.7895 66.0526 69.7368 67.2105 69.7368C68.3684 69.7368 69.3158 68.7895 69.3158 67.6316C69.3158 66.4737 68.3684 65.5263 67.2105 65.5263ZM67.2105 72.8947C66.6211 72.8947 66.1579 73.3579 66.1579 73.9474C66.1579 74.5368 66.6211 75 67.2105 75C67.8 75 68.2632 74.5368 68.2632 73.9474C68.2632 73.3579 67.8 72.8947 67.2105 72.8947ZM58.7895 47.6316C57.0421 47.6316 55.6316 49.0421 55.6316 50.7895C55.6316 52.5368 57.0421 53.9474 58.7895 53.9474C60.5368 53.9474 61.9474 52.5368 61.9474 50.7895C61.9474 49.0421 60.5368 47.6316 58.7895 47.6316ZM58.7895 65.5263C57.6316 65.5263 56.6842 66.4737 56.6842 67.6316C56.6842 68.7895 57.6316 69.7368 58.7895 69.7368C59.9474 69.7368 60.8947 68.7895 60.8947 67.6316C60.8947 66.4737 59.9474 65.5263 58.7895 65.5263ZM67.2105 56.0526C65.4632 56.0526 64.0526 57.4632 64.0526 59.2105C64.0526 60.9579 65.4632 62.3684 67.2105 62.3684C68.9579 62.3684 70.3684 60.9579 70.3684 59.2105C70.3684 57.4632 68.9579 56.0526 67.2105 56.0526ZM67.2105 47.6316C65.4632 47.6316 64.0526 49.0421 64.0526 50.7895C64.0526 52.5368 65.4632 53.9474 67.2105 53.9474C68.9579 53.9474 70.3684 52.5368 70.3684 50.7895C70.3684 49.0421 68.9579 47.6316 67.2105 47.6316Z" fill="white"/>
<defs>
<filter id="filter0_f_828_14285" x="32.0371" y="0.451904" width="95.4546" height="97.7273" filterUnits="userSpaceOnUse" color-interpolation-filters="sRGB">
<feFlood flood-opacity="0" result="BackgroundImageFix"/>
<feBlend mode="normal" in="SourceGraphic" in2="BackgroundImageFix" result="shape"/>
<feGaussianBlur stdDeviation="12.5" result="effect1_foregroundBlur_828_14285"/>
</filter>
<filter id="filter1_f_828_14285" x="0.216797" y="2.72339" width="93.1819" height="81.8182" filterUnits="userSpaceOnUse" color-interpolation-filters="sRGB">
<feFlood flood-opacity="0" result="BackgroundImageFix"/>
<feBlend mode="normal" in="SourceGraphic" in2="BackgroundImageFix" result="shape"/>
<feGaussianBlur stdDeviation="12.5" result="effect1_foregroundBlur_828_14285"/>
</filter>
<filter id="filter2_f_828_14285" x="4.76172" y="27.7234" width="95.4546" height="81.8182" filterUnits="userSpaceOnUse" color-interpolation-filters="sRGB">
<feFlood flood-opacity="0" result="BackgroundImageFix"/>
<feBlend mode="normal" in="SourceGraphic" in2="BackgroundImageFix" result="shape"/>
<feGaussianBlur stdDeviation="12.5" result="effect1_foregroundBlur_828_14285"/>
</filter>
</defs>
</svg>
