<svg width="40" height="40" viewBox="0 0 40 40" fill="none" xmlns="http://www.w3.org/2000/svg">
<path d="M7.36842 22.1053C6.21053 22.1053 5.26316 23.0526 5.26316 24.2105C5.26316 25.3684 6.21053 26.3158 7.36842 26.3158C8.52632 26.3158 9.47368 25.3684 9.47368 24.2105C9.47368 23.0526 8.52632 22.1053 7.36842 22.1053ZM7.36842 30.5263C6.21053 30.5263 5.26316 31.4737 5.26316 32.6316C5.26316 33.7895 6.21053 34.7368 7.36842 34.7368C8.52632 34.7368 9.47368 33.7895 9.47368 32.6316C9.47368 31.4737 8.52632 30.5263 7.36842 30.5263ZM7.36842 13.6842C6.21053 13.6842 5.26316 14.6316 5.26316 15.7895C5.26316 16.9474 6.21053 17.8947 7.36842 17.8947C8.52632 17.8947 9.47368 16.9474 9.47368 15.7895C9.47368 14.6316 8.52632 13.6842 7.36842 13.6842ZM1.05263 14.7368C0.463158 14.7368 0 15.2 0 15.7895C0 16.3789 0.463158 16.8421 1.05263 16.8421C1.64211 16.8421 2.10526 16.3789 2.10526 15.7895C2.10526 15.2 1.64211 14.7368 1.05263 14.7368ZM7.36842 5.26316C6.21053 5.26316 5.26316 6.21053 5.26316 7.36842C5.26316 8.52632 6.21053 9.47368 7.36842 9.47368C8.52632 9.47368 9.47368 8.52632 9.47368 7.36842C9.47368 6.21053 8.52632 5.26316 7.36842 5.26316ZM38.9474 16.8421C39.5368 16.8421 40 16.3789 40 15.7895C40 15.2 39.5368 14.7368 38.9474 14.7368C38.3579 14.7368 37.8947 15.2 37.8947 15.7895C37.8947 16.3789 38.3579 16.8421 38.9474 16.8421ZM24.2105 9.47368C25.3684 9.47368 26.3158 8.52632 26.3158 7.36842C26.3158 6.21053 25.3684 5.26316 24.2105 5.26316C23.0526 5.26316 22.1053 6.21053 22.1053 7.36842C22.1053 8.52632 23.0526 9.47368 24.2105 9.47368ZM24.2105 2.10526C24.8 2.10526 25.2632 1.64211 25.2632 1.05263C25.2632 0.463158 24.8 0 24.2105 0C23.6211 0 23.1579 0.463158 23.1579 1.05263C23.1579 1.64211 23.6211 2.10526 24.2105 2.10526ZM1.05263 23.1579C0.463158 23.1579 0 23.6211 0 24.2105C0 24.8 0.463158 25.2632 1.05263 25.2632C1.64211 25.2632 2.10526 24.8 2.10526 24.2105C2.10526 23.6211 1.64211 23.1579 1.05263 23.1579ZM15.7895 37.8947C15.2 37.8947 14.7368 38.3579 14.7368 38.9474C14.7368 39.5368 15.2 40 15.7895 40C16.3789 40 16.8421 39.5368 16.8421 38.9474C16.8421 38.3579 16.3789 37.8947 15.7895 37.8947ZM15.7895 2.10526C16.3789 2.10526 16.8421 1.64211 16.8421 1.05263C16.8421 0.463158 16.3789 0 15.7895 0C15.2 0 14.7368 0.463158 14.7368 1.05263C14.7368 1.64211 15.2 2.10526 15.7895 2.10526ZM15.7895 9.47368C16.9474 9.47368 17.8947 8.52632 17.8947 7.36842C17.8947 6.21053 16.9474 5.26316 15.7895 5.26316C14.6316 5.26316 13.6842 6.21053 13.6842 7.36842C13.6842 8.52632 14.6316 9.47368 15.7895 9.47368ZM15.7895 21.0526C14.0421 21.0526 12.6316 22.4632 12.6316 24.2105C12.6316 25.9579 14.0421 27.3684 15.7895 27.3684C17.5368 27.3684 18.9474 25.9579 18.9474 24.2105C18.9474 22.4632 17.5368 21.0526 15.7895 21.0526ZM32.6316 22.1053C31.4737 22.1053 30.5263 23.0526 30.5263 24.2105C30.5263 25.3684 31.4737 26.3158 32.6316 26.3158C33.7895 26.3158 34.7368 25.3684 34.7368 24.2105C34.7368 23.0526 33.7895 22.1053 32.6316 22.1053ZM32.6316 30.5263C31.4737 30.5263 30.5263 31.4737 30.5263 32.6316C30.5263 33.7895 31.4737 34.7368 32.6316 34.7368C33.7895 34.7368 34.7368 33.7895 34.7368 32.6316C34.7368 31.4737 33.7895 30.5263 32.6316 30.5263ZM32.6316 13.6842C31.4737 13.6842 30.5263 14.6316 30.5263 15.7895C30.5263 16.9474 31.4737 17.8947 32.6316 17.8947C33.7895 17.8947 34.7368 16.9474 34.7368 15.7895C34.7368 14.6316 33.7895 13.6842 32.6316 13.6842ZM32.6316 5.26316C31.4737 5.26316 30.5263 6.21053 30.5263 7.36842C30.5263 8.52632 31.4737 9.47368 32.6316 9.47368C33.7895 9.47368 34.7368 8.52632 34.7368 7.36842C34.7368 6.21053 33.7895 5.26316 32.6316 5.26316ZM38.9474 23.1579C38.3579 23.1579 37.8947 23.6211 37.8947 24.2105C37.8947 24.8 38.3579 25.2632 38.9474 25.2632C39.5368 25.2632 40 24.8 40 24.2105C40 23.6211 39.5368 23.1579 38.9474 23.1579ZM24.2105 30.5263C23.0526 30.5263 22.1053 31.4737 22.1053 32.6316C22.1053 33.7895 23.0526 34.7368 24.2105 34.7368C25.3684 34.7368 26.3158 33.7895 26.3158 32.6316C26.3158 31.4737 25.3684 30.5263 24.2105 30.5263ZM24.2105 37.8947C23.6211 37.8947 23.1579 38.3579 23.1579 38.9474C23.1579 39.5368 23.6211 40 24.2105 40C24.8 40 25.2632 39.5368 25.2632 38.9474C25.2632 38.3579 24.8 37.8947 24.2105 37.8947ZM15.7895 12.6316C14.0421 12.6316 12.6316 14.0421 12.6316 15.7895C12.6316 17.5368 14.0421 18.9474 15.7895 18.9474C17.5368 18.9474 18.9474 17.5368 18.9474 15.7895C18.9474 14.0421 17.5368 12.6316 15.7895 12.6316ZM15.7895 30.5263C14.6316 30.5263 13.6842 31.4737 13.6842 32.6316C13.6842 33.7895 14.6316 34.7368 15.7895 34.7368C16.9474 34.7368 17.8947 33.7895 17.8947 32.6316C17.8947 31.4737 16.9474 30.5263 15.7895 30.5263ZM24.2105 21.0526C22.4632 21.0526 21.0526 22.4632 21.0526 24.2105C21.0526 25.9579 22.4632 27.3684 24.2105 27.3684C25.9579 27.3684 27.3684 25.9579 27.3684 24.2105C27.3684 22.4632 25.9579 21.0526 24.2105 21.0526ZM24.2105 12.6316C22.4632 12.6316 21.0526 14.0421 21.0526 15.7895C21.0526 17.5368 22.4632 18.9474 24.2105 18.9474C25.9579 18.9474 27.3684 17.5368 27.3684 15.7895C27.3684 14.0421 25.9579 12.6316 24.2105 12.6316Z" fill="white"/>
</svg>
